<svg width="33" height="33" viewBox="0 0 33 33" fill="none" xmlns="http://www.w3.org/2000/svg">
<circle cx="12.2" cy="4.35681" r="3.36" stroke="#1D192B" stroke-width="1.28"/>
<circle cx="4.19995" cy="28.3568" r="3.36" stroke="#1D192B" stroke-width="1.28"/>
<circle cx="28.2" cy="20.3568" r="3.36" stroke="#1D192B" stroke-width="1.28"/>
<path fill-rule="evenodd" clip-rule="evenodd" d="M27.1527 6.30939L28.6527 4.80939L27.7476 3.9043L26.2476 5.4043L27.1527 6.30939ZM21.1527 12.3094L24.1527 9.30939L23.2476 8.4043L20.2476 11.4043L21.1527 12.3094ZM15.1527 18.3094L18.1527 15.3094L17.2476 14.4043L14.2476 17.4043L15.1527 18.3094ZM9.15266 24.3094L12.1527 21.3094L11.2476 20.4043L8.24756 23.4043L9.15266 24.3094Z" fill="black"/>
<path fill-rule="evenodd" clip-rule="evenodd" d="M10.3439 7.90112L4.84155 24.4081C5.27339 24.4777 5.68209 24.6165 6.05593 24.8127L11.5583 8.3057C11.1264 8.23607 10.7177 8.0973 10.3439 7.90112ZM8.14869 27.7153C8.07907 27.2835 7.94031 26.8748 7.74414 26.5009L24.2511 20.9986C24.3207 21.4304 24.4595 21.8391 24.6556 22.213L8.14869 27.7153Z" fill="black"/>
</svg>
