<svg width="31" height="30" viewBox="0 0 31 30" fill="none" xmlns="http://www.w3.org/2000/svg">
<path d="M2.32845 26.5712L1.3999 29.3568L4.12061 28.4499L2.32845 26.5712Z" fill="black"/>
<path d="M4.51101 20.0235L10.7332 26.2457M4.51101 20.0235L2.32845 26.5712M4.51101 20.0235L20.0666 4.46792M10.7332 26.2457L4.12061 28.4499M10.7332 26.2457L26.2888 10.6901M1.3999 29.3568L2.32845 26.5712M1.3999 29.3568L4.12061 28.4499M1.3999 29.3568H29.3999M2.32845 26.5712L4.12061 28.4499M20.0666 4.46792L23.1777 1.35681C29.3999 1.35681 29.3999 5.50496 29.3999 7.57903L26.2888 10.6901M20.0666 4.46792L26.2888 10.6901" stroke="black" stroke-width="1.28"/>
</svg>
