<svg width="24" height="24" viewBox="0 0 24 24" fill="none" xmlns="http://www.w3.org/2000/svg">
<rect width="24" height="24" rx="12" fill="#FDE8E8"/>
<path d="M12.0001 5.8125C11.6956 5.8125 11.4172 6.07125 11.4376 6.375L11.7188 13.9688C11.7188 14.0433 11.7485 14.1149 11.8012 14.1676C11.8539 14.2204 11.9255 14.25 12.0001 14.25C12.0747 14.25 12.1462 14.2204 12.199 14.1676C12.2517 14.1149 12.2813 14.0433 12.2813 13.9688L12.5626 6.375C12.583 6.07125 12.3045 5.8125 12.0001 5.8125Z" stroke="#C81E1E" stroke-width="1.125" stroke-linecap="round" stroke-linejoin="round"/>
<path d="M12 18.1875C12.3107 18.1875 12.5625 17.9357 12.5625 17.625C12.5625 17.3143 12.3107 17.0625 12 17.0625C11.6893 17.0625 11.4375 17.3143 11.4375 17.625C11.4375 17.9357 11.6893 18.1875 12 18.1875Z" stroke="#C81E1E" stroke-width="1.125" stroke-linecap="round" stroke-linejoin="round"/>
</svg>
