<svg width="50" height="50" viewBox="0 0 50 50" fill="none" xmlns="http://www.w3.org/2000/svg">
<path fill-rule="evenodd" clip-rule="evenodd" d="M25.0203 0.999878C11.5128 0.999878 0.593262 11.9999 0.593262 25.6084C0.593262 36.4864 7.58976 45.6944 17.2958 48.9534C18.5093 49.1984 18.9538 48.4239 18.9538 47.7724C18.9538 47.2019 18.9138 45.2464 18.9138 43.2089C12.1188 44.6759 10.7038 40.2754 10.7038 40.2754C9.61176 37.4234 7.99376 36.6904 7.99376 36.6904C5.76976 35.1829 8.15576 35.1829 8.15576 35.1829C10.6228 35.3459 11.9173 37.7089 11.9173 37.7089C14.1008 41.4569 17.6193 40.3979 19.0348 39.7459C19.2368 38.1569 19.8843 37.0569 20.5718 36.4459C15.1523 35.8754 9.45026 33.7569 9.45026 24.3044C9.45026 21.6154 10.4203 19.4154 11.9573 17.7044C11.7148 17.0934 10.8653 14.5669 12.2003 11.1854C12.2003 11.1854 14.2628 10.5334 18.9133 13.7114C20.9043 13.1727 22.9576 12.8987 25.0203 12.8964C27.0828 12.8964 29.1853 13.1819 31.1268 13.7114C35.7778 10.5334 37.8403 11.1854 37.8403 11.1854C39.1753 14.5669 38.3253 17.0934 38.0828 17.7044C39.6603 19.4154 40.5903 21.6154 40.5903 24.3044C40.5903 33.7569 34.8883 35.8344 29.4283 36.4459C30.3183 37.2199 31.0863 38.6864 31.0863 41.0089C31.0863 44.3089 31.0463 46.9574 31.0463 47.7719C31.0463 48.4239 31.4913 49.1984 32.7043 48.9539C42.4103 45.6939 49.4068 36.4864 49.4068 25.6084C49.4468 11.9999 38.4873 0.999878 25.0203 0.999878Z" fill="#6750A4"/>
</svg>
