<svg width="60" height="60" viewBox="0 0 60 60" fill="none" xmlns="http://www.w3.org/2000/svg">
<rect width="60" height="60"/>
<path d="M9.10583 33.2615L13.3485 25.9131L20.6969 30.1557L29.1822 15.4588L46.5689 10.8L33.841 32.8454L35.3939 38.641L54.3335 39.7778L31.1512 45.9894L16.4543 37.5042L14.9014 31.7086L9.10583 33.2615Z" fill="#6750A4"/>
<path d="M16.4543 37.5042L14.9014 31.7086M16.4543 37.5042L31.1512 45.9894M16.4543 37.5042L20.6969 30.1557M16.4543 37.5042L33.841 32.8454M31.1512 45.9894L35.3939 38.641M31.1512 45.9894L54.3335 39.7778L35.3939 38.641M13.3485 25.9131L9.10583 33.2615L14.9014 31.7086M13.3485 25.9131L14.9014 31.7086M13.3485 25.9131L20.6969 30.1557M35.3939 38.641L33.841 32.8454M33.841 32.8454L29.1822 15.4588M33.841 32.8454L46.5689 10.8L29.1822 15.4588M29.1822 15.4588L20.6969 30.1557" stroke="white" stroke-width="1.2"/>
</svg>
