<svg width="24" height="24" viewBox="0 0 24 24" fill="none" xmlns="http://www.w3.org/2000/svg">
<path d="M11.5 11.461C11.5 11.198 11.737 11 12 11C12.263 11 12.5 11.198 12.5 11.461V20.5C12.5 20.6326 12.4473 20.7598 12.3536 20.8536C12.2598 20.9473 12.1326 21 12 21C11.8674 21 11.7402 20.9473 11.6464 20.8536C11.5527 20.7598 11.5 20.6326 11.5 20.5V11.461Z" fill="#71717A"/>
<path fill-rule="evenodd" clip-rule="evenodd" d="M10 8C9.99989 7.55652 10.1472 7.12558 10.4187 6.77495C10.6902 6.42431 11.0706 6.17387 11.5 6.063V3.5C11.5 3.36739 11.5527 3.24021 11.6464 3.14645C11.7402 3.05268 11.8674 3 12 3C12.1326 3 12.2598 3.05268 12.3536 3.14645C12.4473 3.24021 12.5 3.36739 12.5 3.5V6.063C12.9702 6.18587 13.3797 6.47568 13.6519 6.87834C13.9241 7.28099 14.0405 7.76895 13.9792 8.25111C13.918 8.73327 13.6834 9.17666 13.3191 9.49849C12.9549 9.82032 12.486 9.99858 12 10C11.4696 10 10.9609 9.78929 10.5858 9.41421C10.2107 9.03914 10 8.53043 10 8ZM12 9C12.2652 9 12.5196 8.89464 12.7071 8.70711C12.8946 8.51957 13 8.26522 13 8C13 7.73478 12.8946 7.48043 12.7071 7.29289C12.5196 7.10536 12.2652 7 12 7C11.7348 7 11.4804 7.10536 11.2929 7.29289C11.1054 7.48043 11 7.73478 11 8C11 8.26522 11.1054 8.51957 11.2929 8.70711C11.4804 8.89464 11.7348 9 12 9ZM8 16C7.99991 16.3742 7.89483 16.7409 7.6967 17.0584C7.49858 17.3759 7.21536 17.6314 6.87924 17.7959C6.54311 17.9604 6.16758 18.0273 5.79532 17.989C5.42306 17.9507 5.06902 17.8088 4.77343 17.5792C4.47785 17.3497 4.25258 17.0419 4.12325 16.6908C3.99391 16.3396 3.96569 15.9592 4.0418 15.5928C4.1179 15.2264 4.29528 14.8887 4.55376 14.6181C4.81225 14.3475 5.14147 14.1548 5.504 14.062C5.50138 14.0414 5.50005 14.0207 5.5 14V3.5C5.5 3.36739 5.55268 3.24021 5.64645 3.14645C5.74022 3.05268 5.86739 3 6 3C6.13261 3 6.25979 3.05268 6.35355 3.14645C6.44732 3.24021 6.5 3.36739 6.5 3.5V14C6.5 14.021 6.49867 14.0417 6.496 14.062C6.92631 14.1722 7.3077 14.4224 7.58002 14.7733C7.85235 15.1242 8.00011 15.5558 8 16ZM7 16C7 16.2652 6.89464 16.5196 6.70711 16.7071C6.51957 16.8946 6.26522 17 6 17C5.73478 17 5.48043 16.8946 5.29289 16.7071C5.10536 16.5196 5 16.2652 5 16C5 15.7348 5.10536 15.4804 5.29289 15.2929C5.48043 15.1054 5.73478 15 6 15C6.26522 15 6.51957 15.1054 6.70711 15.2929C6.89464 15.4804 7 15.7348 7 16Z" fill="#71717A"/>
<path d="M18 21C17.8674 21 17.7402 20.9473 17.6464 20.8536C17.5527 20.7598 17.5 20.6326 17.5 20.5V16.961C17.5 16.698 17.737 16.5 18 16.5C18.263 16.5 18.5 16.698 18.5 16.961V20.5C18.5 20.6326 18.4473 20.7598 18.3536 20.8536C18.2598 20.9473 18.1326 21 18 21Z" fill="#71717A"/>
<path fill-rule="evenodd" clip-rule="evenodd" d="M18 3C17.8674 3 17.7403 3.05268 17.6465 3.14645C17.5527 3.24021 17.5 3.36739 17.5 3.5V11.563C17.0298 11.6859 16.6204 11.9757 16.3482 12.3783C16.0759 12.781 15.9596 13.269 16.0208 13.7511C16.0821 14.2333 16.3167 14.6767 16.6809 14.9985C17.0451 15.3203 17.514 15.4986 18 15.5C18.4872 15.5005 18.9577 15.3232 19.3234 15.0013C19.6891 14.6795 19.9247 14.2352 19.9861 13.752C20.0475 13.2687 19.9304 12.7797 19.6567 12.3767C19.3831 11.9736 18.9718 11.6843 18.5 11.563V3.5C18.5 3.36739 18.4474 3.24021 18.3536 3.14645C18.2598 3.05268 18.1327 3 18 3ZM18 12.5C17.7348 12.5 17.4805 12.6054 17.2929 12.7929C17.1054 12.9804 17 13.2348 17 13.5C17 13.7652 17.1054 14.0196 17.2929 14.2071C17.4805 14.3946 17.7348 14.5 18 14.5C18.2653 14.5 18.5196 14.3946 18.7072 14.2071C18.8947 14.0196 19 13.7652 19 13.5C19 13.2348 18.8947 12.9804 18.7072 12.7929C18.5196 12.6054 18.2653 12.5 18 12.5Z" fill="#71717A"/>
<path d="M5.5 20.5C5.5 20.6326 5.55268 20.7598 5.64645 20.8536C5.74021 20.9473 5.86739 21 6 21C6.13261 21 6.25979 20.9473 6.35355 20.8536C6.44732 20.7598 6.5 20.6326 6.5 20.5V19.461C6.5 19.198 6.263 19 6 19C5.737 19 5.5 19.198 5.5 19.461V20.5Z" fill="#71717A"/>
</svg>
