<svg width="25" height="24" viewBox="0 0 25 24" fill="none" xmlns="http://www.w3.org/2000/svg">
<path d="M19.3334 0H3.3334C2.62616 0 1.94788 0.280951 1.44778 0.781048C0.947685 1.28115 0.666734 1.95942 0.666734 2.66667V21.3333C0.666734 22.0406 0.947685 22.7189 1.44778 23.219C1.94788 23.719 2.62616 24 3.3334 24H22.0001C23.4667 24 24.6667 22.8 24.6667 21.3333V5.33333L19.3334 0ZM22.5334 21.8667H2.80007V2.13333H18.0709L22.3795 6.4L22.5334 21.8667ZM12.6667 12C10.4534 12 8.66673 13.7867 8.66673 16C8.66673 18.2133 10.4534 20 12.6667 20C14.8801 20 16.6667 18.2133 16.6667 16C16.6667 13.7867 14.8801 12 12.6667 12ZM4.66673 4H16.6667V9.33333H4.66673V4Z" fill="black"/>
</svg>
