<svg width="13" height="12" viewBox="0 0 13 12" fill="none" xmlns="http://www.w3.org/2000/svg">
<path d="M5.5 11.5C5.5 11.6326 5.44732 11.7598 5.35355 11.8536C5.25979 11.9473 5.13261 12 5 12H1C0.867392 12 0.740215 11.9473 0.646447 11.8536C0.552679 11.7598 0.5 11.6326 0.5 11.5V0.5C0.5 0.367392 0.552679 0.240215 0.646447 0.146447C0.740215 0.0526785 0.867392 0 1 0H5C5.13261 0 5.25979 0.0526785 5.35355 0.146447C5.44732 0.240215 5.5 0.367392 5.5 0.5C5.5 0.632608 5.44732 0.759785 5.35355 0.853553C5.25979 0.947321 5.13261 1 5 1H1.5V11H5C5.13261 11 5.25979 11.0527 5.35355 11.1464C5.44732 11.2402 5.5 11.3674 5.5 11.5ZM12.3538 5.64625L9.85375 3.14625C9.75993 3.05243 9.63268 2.99972 9.5 2.99972C9.36732 2.99972 9.24007 3.05243 9.14625 3.14625C9.05243 3.24007 8.99972 3.36732 8.99972 3.5C8.99972 3.63268 9.05243 3.75993 9.14625 3.85375L10.7931 5.5H5C4.86739 5.5 4.74021 5.55268 4.64645 5.64645C4.55268 5.74021 4.5 5.86739 4.5 6C4.5 6.13261 4.55268 6.25979 4.64645 6.35355C4.74021 6.44732 4.86739 6.5 5 6.5H10.7931L9.14625 8.14625C9.05243 8.24007 8.99972 8.36732 8.99972 8.5C8.99972 8.63268 9.05243 8.75993 9.14625 8.85375C9.24007 8.94757 9.36732 9.00028 9.5 9.00028C9.63268 9.00028 9.75993 8.94757 9.85375 8.85375L12.3538 6.35375C12.4002 6.30731 12.4371 6.25217 12.4623 6.19147C12.4874 6.13077 12.5004 6.06571 12.5004 6C12.5004 5.93429 12.4874 5.86923 12.4623 5.80853C12.4371 5.74783 12.4002 5.69269 12.3538 5.64625Z" fill="black"/>
</svg>
