<svg width="31" height="33" viewBox="0 0 31 33" fill="none" xmlns="http://www.w3.org/2000/svg">
<path d="M14 27.2725L20 27.2724L26 23.2724C26 23.2724 30 21.2725 30 19.2725C30 17.6624 26 19.2724 26 19.2724L22 21.2725M14 27.2725L6 23.2725M14 27.2725L10 31.2725L2 27.2725L6 23.2725M22 21.2725H16M22 21.2725C22 20.6059 21.6 19.2725 20 19.2725L14 19.2725L6 23.2725" stroke="black" stroke-width="1.28"/>
<circle cx="12" cy="12.5569" r="3.36" stroke="black" stroke-width="1.28"/>
<circle cx="24" cy="4.55688" r="3.36" stroke="black" stroke-width="1.28"/>
<path fill-rule="evenodd" clip-rule="evenodd" d="M14.9304 9.83417L20.3589 6.21521C20.5382 6.60828 20.7792 6.96725 21.0697 7.27969L15.6412 10.8987C15.4619 10.5056 15.2209 10.1466 14.9304 9.83417Z" fill="black"/>
</svg>
