<svg width="50" height="50" viewBox="0 0 50 50" fill="none" xmlns="http://www.w3.org/2000/svg">
<rect width="50" height="50" rx="25" fill="#6750A4"/>
<path d="M19.3463 7.00153C19.0255 7.06254 18.7366 7.23494 18.5307 7.48829C18.3247 7.74164 18.2149 8.05963 18.2206 8.38609V9.77064H13.2445C12.1369 9.77064 11.2979 10.6097 11.2979 11.7173V40.9232C11.2979 42.1693 12.1369 43 13.2445 43H36.9121C38.0198 43 38.8588 42.161 38.8588 41.0533V11.7173C38.9973 10.6097 38.1499 9.77064 37.0423 9.77064H32.0662V8.38609C32.0662 8.01888 31.9203 7.66671 31.6607 7.40706C31.401 7.1474 31.0488 7.00153 30.6816 7.00153H19.6052C19.5618 6.99949 19.5184 6.99949 19.475 7.00153C19.4317 6.99949 19.3896 6.99949 19.3463 7.00153ZM20.9897 9.77064H29.2971V12.5398H20.9897V9.77064ZM14.067 12.5398H18.2206V13.9243C18.2206 14.2915 18.3665 14.6437 18.6262 14.9033C18.8858 15.163 19.238 15.3089 19.6052 15.3089H30.6816C31.0488 15.3089 31.401 15.163 31.6607 14.9033C31.9203 14.6437 32.0662 14.2915 32.0662 13.9243V12.5398H36.2199V40.2309H14.067V12.5398ZM16.8361 19.4625V25.0008H22.3743V19.4625H16.8361ZM18.2206 20.8471H20.9897V23.6162H18.2206V20.8471ZM25.1434 20.8471V23.6162H33.4508V20.8471H25.1434ZM16.8361 27.7699V33.3081H22.3743V27.7699H16.8361ZM25.1434 29.1544V31.9235H33.4508V29.1544H25.1434Z" fill="#6750A4"/>
<path fill-rule="evenodd" clip-rule="evenodd" d="M14.067 12.5398H18.2206V13.9243C18.2206 14.2915 18.3665 14.6437 18.6262 14.9033C18.8858 15.163 19.238 15.3089 19.6052 15.3089H30.6816C31.0488 15.3089 31.401 15.163 31.6607 14.9033C31.9203 14.6437 32.0662 14.2915 32.0662 13.9243V12.5398H36.2199V40.2309H14.067V12.5398ZM16.8361 25.0008V19.4625H22.3743V25.0008H16.8361ZM25.1434 23.6162V20.8471H33.4508V23.6162H25.1434ZM16.8361 33.3081V27.7699H22.3743V33.3081H16.8361ZM25.1434 31.9235V29.1544H33.4508V31.9235H25.1434Z" fill="white"/>
<path d="M20.9897 9.77064H29.2971V12.5398H20.9897V9.77064Z" fill="white"/>
<path d="M18.2206 20.8471H20.9897V23.6162H18.2206V20.8471Z" fill="white"/>
</svg>
