<svg width="50" height="50" viewBox="0 0 50 50" fill="none" xmlns="http://www.w3.org/2000/svg">
<rect width="50" height="50" rx="25" fill="#6750A4"/>
<path d="M25.0003 11L7.88916 20.3333L14.1114 23.7244V33.0578L25.0003 39L35.8892 33.0578V23.7244L39.0003 22.0289V32.7778H42.1114V20.3333L25.0003 11ZM35.6092 20.3333L25.0003 26.12L14.3914 20.3333L25.0003 14.5467L35.6092 20.3333ZM32.778 31.2222L25.0003 35.4533L17.2225 31.2222V25.42L25.0003 29.6667L32.778 25.42V31.2222Z" fill="white"/>
<path d="M35.6092 20.3333L25.0003 26.12L14.3914 20.3333L25.0003 14.5467L35.6092 20.3333Z" fill="#6750A4"/>
<path d="M32.778 31.2222L25.0003 35.4533L17.2225 31.2222V25.42L25.0003 29.6667L32.778 25.42V31.2222Z" fill="#6750A4"/>
</svg>
